<svg xmlns="http://www.w3.org/2000/svg" width="600" height="500" viewBox="0 0 600 500"><path fill-rule="evenodd" d="M840,850 L1270,850 C1286.57,850 1300,836.57 1300,820 L1300,780 C1300,763.43 1286.57,750 1270,750 L830,750 C813.43,750 800,763.43 800,780 L800,810 C800,832.09 782.09,850 760,850 L730,850 C713.43,850 700,863.43 700,880 L700,980 L700,1020 L700,1220 C700,1236.57 713.43,1250 730,1250 L770,1250 C786.57,1250 800,1236.57 800,1220 L800,1090 C800,1067.91 817.91,1050 840,1050 L1270,1050 C1286.57,1050 1300,1036.57 1300,1020 L1300,980 C1300,963.43 1286.57,950 1270,950 L840,950 C817.91,950 800,932.09 800,910 L800,890 C800,867.91 817.91,850 840,850" transform="translate(-700 -750)"/></svg>